<?xml version="1.0" standalone="no"?>
<!DOCTYPE svg PUBLIC "-//W3C//DTD SVG 20010904//EN"
 "http://www.w3.org/TR/2001/REC-SVG-20010904/DTD/svg10.dtd">
<svg version="1.0" xmlns="http://www.w3.org/2000/svg"
 width="1698.000000pt" height="1698.000000pt" viewBox="0 0 1698.000000 1698.000000"
 preserveAspectRatio="xMidYMid meet">
<metadata>
Created by potrace 1.14, written by Peter Selinger 2001-2017
</metadata>
<g transform="translate(0.000000,1698.000000) scale(0.100000,-0.100000)"
fill="#000000" stroke="none">
<path d="M12820 16964 c-93 -25 -161 -64 -230 -134 -71 -71 -110 -138 -135
-235 -37 -144 3 -324 95 -428 16 -19 30 -39 30 -43 0 -13 -1781 -1790 -1807
-1803 -42 -21 -89 -11 -214 45 -602 270 -1299 471 -1970 569 -582 84 -1259 98
-1839 39 -1355 -138 -2655 -652 -3750 -1482 -307 -233 -516 -416 -800 -701
-815 -817 -1425 -1796 -1794 -2879 -221 -650 -346 -1288 -387 -1987 -15 -251
-7 -816 15 -1055 120 -1312 546 -2510 1273 -3580 387 -569 891 -1122 1428
-1566 1138 -942 2558 -1535 4020 -1678 542 -53 1168 -46 1685 20 1351 172
2618 701 3690 1543 245 192 412 342 676 605 263 264 413 431 605 676 842 1072
1371 2339 1543 3690 66 518 73 1142 20 1685 -76 773 -293 1592 -608 2294 -56
125 -66 172 -45 214 13 26 1790 1807 1803 1807 4 0 24 -14 43 -30 157 -138
431 -143 607 -11 201 152 262 421 146 640 -25 46 -371 397 -1863 1888 -1494
1494 -1842 1836 -1884 1857 -108 54 -244 69 -353 40z m255 -224 c54 -26 245
-215 1856 -1827 1995 -1997 1841 -1832 1841 -1973 0 -165 -126 -291 -292 -292
-143 -1 13 -147 -1991 1859 -1995 1997 -1841 1832 -1841 1973 0 177 152 313
327 293 22 -3 67 -18 100 -33z m1285 -2385 l1625 -1625 -917 -917 c-982 -983
-950 -948 -964 -1064 -8 -71 3 -111 91 -309 765 -1734 815 -3740 138 -5515
-878 -2298 -2869 -4017 -5264 -4544 -1032 -227 -2139 -224 -3171 10 -2986 675
-5246 3163 -5627 6194 -189 1505 86 3014 791 4329 1081 2019 3032 3429 5253
3795 424 70 740 95 1195 95 360 0 524 -9 840 -45 739 -85 1455 -280 2120 -577
165 -74 209 -86 279 -78 118 14 79 -21 1061 961 503 503 917 915 920 915 3 0
736 -731 1630 -1625z"/>
<path d="M7700 14203 c-14 -2 -90 -13 -170 -24 -481 -67 -1026 -215 -1413
-383 -935 -407 -1704 -1244 -2132 -2322 -96 -242 -198 -580 -262 -874 -5 -23
-11 -18 -100 75 -171 181 -298 361 -400 570 -34 69 -52 97 -48 75 17 -87 80
-257 144 -385 38 -77 68 -141 67 -143 -7 -7 -233 218 -288 286 -71 88 -162
226 -198 300 -14 29 -31 52 -37 52 -17 0 -17 0 6 -53 53 -124 196 -324 411
-577 167 -196 283 -350 317 -419 39 -79 37 -174 -5 -264 -97 -208 -308 -399
-662 -599 -153 -87 -246 -133 -593 -294 -428 -200 -519 -247 -588 -312 -80
-74 -103 -119 -103 -202 0 -55 5 -76 36 -135 52 -100 107 -175 243 -330 212
-241 274 -352 283 -502 3 -64 0 -96 -16 -150 -39 -125 -97 -195 -275 -327
-135 -100 -193 -161 -203 -211 -20 -111 33 -226 189 -405 l66 -75 -92 -30
c-170 -55 -237 -112 -245 -209 -6 -75 16 -143 113 -346 98 -203 113 -266 96
-379 -20 -125 -59 -205 -182 -364 -220 -284 -239 -474 -79 -802 72 -148 142
-248 250 -356 145 -146 292 -234 506 -305 217 -71 424 -101 949 -139 504 -37
659 -56 884 -111 393 -96 718 -310 934 -614 87 -123 205 -360 260 -525 102
-301 193 -729 246 -1159 11 -87 23 -162 28 -166 20 -18 716 -165 918 -194 461
-66 1130 -84 1535 -41 530 56 1086 171 1520 315 221 73 547 201 717 280 l105
50 -218 151 c-690 478 -1450 1046 -2040 1525 -500 406 -836 706 -1200 1069
-550 549 -793 878 -865 1170 -30 119 -32 320 -5 445 54 251 205 539 438 838
201 257 360 424 1124 1187 532 531 666 674 863 920 453 566 712 1166 808 1875
25 188 25 716 0 902 -24 179 -63 383 -97 517 -17 63 -30 117 -29 120 1 14 83
-205 134 -358 218 -661 276 -1234 179 -1771 -90 -495 -305 -937 -716 -1471
-281 -366 -533 -652 -1193 -1359 -407 -436 -478 -514 -594 -660 -306 -382
-432 -670 -418 -954 26 -533 546 -1053 1807 -1808 151 -91 291 -173 310 -182
l35 -17 -41 38 c-23 21 -142 130 -265 243 -357 326 -520 482 -636 611 -245
273 -374 483 -429 699 -15 60 -19 109 -18 245 0 156 3 178 28 260 98 321 343
643 999 1312 162 166 353 366 423 445 724 815 1102 1580 1205 2443 17 142 18
585 1 730 -114 988 -573 1926 -1457 2981 -61 72 -174 221 -253 331 -79 111
-151 208 -162 218 -10 9 21 -69 69 -177 582 -1283 790 -2300 650 -3177 -61
-382 -203 -756 -406 -1066 -219 -334 -603 -751 -1293 -1405 -651 -617 -1252
-1253 -1516 -1605 -433 -576 -546 -1056 -368 -1566 80 -231 211 -444 475 -774
246 -309 562 -632 1139 -1164 441 -406 786 -736 801 -763 22 -42 -1008 705
-1340 972 -80 64 -252 199 -381 300 -129 100 -286 226 -350 278 -138 116 -422
397 -509 505 -154 191 -296 440 -355 622 -160 495 -91 910 236 1435 250 401
612 802 1334 1481 400 376 1051 1007 1224 1186 684 710 988 1226 1101 1870 27
153 36 462 20 639 -7 71 -23 190 -37 264 -28 151 -89 399 -103 413 -4 4 -11
-19 -14 -51 -9 -83 -51 -211 -107 -322 -139 -277 -383 -514 -675 -660 -207
-102 -333 -133 -540 -133 -109 0 -157 5 -217 21 -73 20 -182 62 -176 68 2 1
35 -7 73 -19 60 -18 96 -21 245 -21 163 0 181 2 265 28 314 96 575 287 781
572 68 94 114 190 145 299 28 102 38 411 19 575 -22 187 -87 414 -182 640 -55
130 -347 731 -366 753 -14 16 -38 19 -92 10z"/>
<path d="M14880 13001 c-46 -15 -85 -39 -116 -73 -54 -57 -69 -95 -69 -178 0
-83 15 -121 69 -178 53 -57 101 -77 186 -77 85 0 133 20 186 77 54 57 69 95
69 178 0 54 -6 85 -19 110 -26 49 -74 98 -121 122 -43 22 -144 33 -185 19z
m149 -138 c85 -63 75 -186 -20 -236 -92 -49 -208 33 -195 137 12 104 133 159
215 99z"/>
<path d="M13581 12705 c-316 -89 -442 -458 -247 -723 49 -66 138 -130 218
-159 79 -27 234 -24 310 6 84 33 168 99 215 170 60 89 78 149 78 261 0 112
-18 172 -78 261 -47 71 -132 138 -215 169 -75 29 -207 36 -281 15z m264 -140
c63 -30 139 -108 168 -173 16 -36 21 -66 21 -132 0 -66 -5 -96 -21 -132 -30
-66 -105 -143 -172 -175 -48 -24 -68 -28 -141 -28 -73 0 -93 4 -141 28 -67 32
-142 109 -172 175 -30 66 -30 198 0 264 25 54 90 128 141 160 88 54 222 60
317 13z"/>
<path d="M12930 11298 c-54 -17 -75 -31 -131 -87 -58 -58 -70 -76 -88 -135
-12 -37 -21 -90 -21 -116 0 -26 9 -79 21 -116 18 -59 30 -77 88 -135 58 -58
76 -70 135 -88 37 -12 90 -21 116 -21 26 0 79 9 116 21 59 18 77 30 135 88 58
58 70 76 88 135 12 37 21 90 21 116 0 26 -9 79 -21 116 -18 59 -30 77 -88 135
-58 58 -76 70 -135 88 -84 26 -152 26 -236 -1z m226 -126 c84 -43 128 -117
128 -212 0 -137 -96 -234 -234 -234 -138 0 -234 97 -234 234 0 112 62 195 174
231 38 13 123 3 166 -19z"/>
<path d="M11162 10089 c-46 -23 -83 -65 -102 -114 -6 -16 -15 -95 -20 -175 -5
-80 -19 -296 -30 -480 -78 -1267 -189 -2597 -331 -3942 -44 -424 -44 -430 10
-506 20 -27 51 -50 96 -73 158 -78 378 -34 461 91 25 38 28 51 40 233 32 470
83 1555 109 2292 38 1109 62 2442 44 2507 -42 156 -158 226 -277 167z"/>
<path d="M12830 9950 c-311 -83 -514 -357 -497 -670 14 -278 190 -510 450
-597 72 -24 98 -27 207 -27 109 0 135 3 206 27 197 66 355 223 421 420 24 72
27 98 27 207 0 109 -3 135 -27 206 -66 198 -225 357 -420 420 -113 37 -261 42
-367 14z m279 -115 c90 -22 197 -81 261 -145 95 -95 160 -249 160 -380 0 -190
-117 -384 -286 -472 -169 -89 -339 -89 -508 0 -132 69 -236 204 -271 353 -29
127 -12 249 53 373 110 211 360 325 591 271z"/>
<path d="M14033 7000 c-35 -14 -51 -50 -62 -135 -11 -90 -4 -115 42 -149 37
-27 91 -25 124 6 33 30 39 48 48 141 l7 77 -35 35 c-36 36 -76 44 -124 25z"/>
<path d="M13933 6290 c-34 -14 -51 -49 -72 -150 -218 -1053 -739 -2102 -1417
-2854 -107 -118 -124 -142 -124 -179 0 -40 58 -97 96 -97 43 1 68 19 144 102
720 802 1236 1815 1480 2906 24 108 38 191 34 207 -14 56 -84 88 -141 65z"/>
<path d="M10549 4444 c-70 -67 -171 -194 -224 -284 -78 -134 -105 -215 -184
-555 -53 -226 -135 -289 -376 -287 -124 1 -258 19 -454 62 -74 16 -136 28
-138 27 -1 -2 39 -31 91 -65 530 -351 1256 -372 1723 -50 315 217 426 562 302
940 -23 70 -70 180 -85 196 -1 2 -31 -10 -66 -27 -115 -56 -260 -60 -388 -12
-50 19 -114 60 -137 89 -10 12 -20 6 -64 -34z"/>
<path d="M15485 16441 c-168 -78 -164 -314 7 -385 134 -56 288 48 288 194 0
150 -160 253 -295 191z m146 -130 c20 -20 29 -39 29 -61 0 -22 -9 -41 -29 -61
-20 -20 -39 -29 -61 -29 -22 0 -41 9 -61 29 -20 20 -29 39 -29 61 0 22 9 41
29 61 20 20 39 29 61 29 22 0 41 -9 61 -29z"/>
<path d="M15820 15421 c-46 -15 -85 -39 -116 -73 -54 -57 -69 -95 -69 -178 0
-83 15 -121 69 -178 53 -57 101 -77 186 -77 85 0 133 20 186 77 54 57 69 95
69 178 0 54 -6 85 -19 110 -26 49 -74 98 -121 122 -43 22 -144 33 -185 19z
m149 -138 c85 -63 75 -186 -20 -236 -92 -49 -208 33 -195 137 12 104 133 159
215 99z"/>
</g>
</svg>
