<svg xmlns="http://www.w3.org/2000/svg" viewBox="0 0 40000 40000"><defs><filter id="a" filterUnits="userSpaceOnUse"><feOffset dx="4" dy="4"/><feGaussianBlur result="blur" stdDeviation="5"/><feFlood flood-color="#000" flood-opacity=".65"/><feComposite in2="blur" operator="in"/><feComposite in="SourceGraphic"/></filter></defs><path d="M0 0h40000v40000H0" fill="#c1272d" opacity=".75"/><g filter="url(#a)"><path d="M18406 33588c-211 0-425-6-636-17-2862-150-5581-1326-7656-3312-2069-1980-3362-4633-3642-7471-337-3407 747-6684 3052-9227 2280-2517 5516-3960 8878-3960 430 0 867 23 1298 70 1304 140 2567 490 3753 1041a360 360 0 00 408-72l3018-3018 5501 5501-3018 3018a362.1 362.1 0 00-72 408c645 1390 1013 2873 1094 4410 173 3314-993 6468-3284 8881-2294 2417-5381 3748-8692 3748Z" fill="#fff"/><path d="m26879 7850 5272 5272-2904 2904a525.7 525.7 0 00-105 591c637 1371 1000 2834 1079 4350 86 1653-165 3269-747 4802-560 1475-1398 2807-2492 3959-1096 1155-2387 2064-3835 2702-1500 661-3095 996-4741 996-208 0-419-6-627-16-2824-147-5506-1308-7553-3267-2041-1953-3317-4571-3593-7370-168-1701 24-3375 570-4973 523-1531 1344-2920 2441-4130 2250-2483 5442-3907 8758-3907 424 0 855 23 1281 69 1286 138 2532 484 3702 1027a522 522 0 00 591-105L26880 7850m0-418c-25 0-50 10-69 29l-3064 3064a202.4 202.4 0 01-226 41 12097.6 12097.6 0 00-3804-1056c-442-47-881-71-1315-71-7069 0-12804 6146-12091 13365 586 5935 5441 10615 11451 10929 216 11 431 17 644 17 6904 0 12503-5820 12138-12800-83-1590-472-3099-1109-4470-35-76-19-166 40-225l3064-3064c38-38 38-100 0-138l-5592-5592a97.8 97.8 0 00-69-29Z"/><path d="M32940 13439c-173 0-336-67-458-190l-5730-5730c-123-122-190-285-190-458s67-336 190-458 285-190 458-190 336 67 458 190l5730 5730a648.8 648.8 0 01 0 917 644.6 644.6 0 01-458 190Z" fill="#fff"/><path d="M27210 6574c130 0 252 51 344 142l5730 5730c190 190 190 498 0 688-92 92-214 142-344 142s-252-51-344-142l-5730-5730c-190-190-190-498 0-688 92-92 214-142 344-142m0-324c-207 0-415 79-573 237-316 316-316 830 0 1146l5730 5730c158 158 366 237 573 237s415-79 573-237c316-316 316-830 0-1146l-5730-5730a808.7 808.7 0 00-573-237Z"/><path d="M26366 28723c1300-1388 2167-3195 2519-5004" fill="none" stroke="#000" stroke-linecap="round" stroke-linejoin="round" stroke-width="324"/><path d="M28894 22530c-11 71-17 142-24 213-9 89 85 174 170 170 100-4 160-75 170-170 3-25 5-51 7-76 1-12 2-24 4-36 2-18 2-13-2 14 1-8 2-16 4-24 7-47 8-89-17-131-21-35-61-69-102-78-82-19-194 25-209 119Z"/><circle fill="#fff" cx="28438" cy="13896" r="648" stroke="#000" stroke-miterlimit="10" stroke-width="194"/><circle fill="#fff" cx="27287" cy="18677" r="972" stroke="#000" stroke-miterlimit="10" stroke-width="194"/><circle fill="#fff" cx="31987" cy="9180" r="324" stroke="#000" stroke-miterlimit="10" stroke-width="194"/><circle fill="#fff" cx="31468" cy="7430" r="243" stroke="#000" stroke-miterlimit="10" stroke-width="194"/><circle fill="#fff" cx="27384" cy="16003" r="486" stroke="#000" stroke-miterlimit="10" stroke-width="194"/><circle fill="#fff" cx="30464" cy="13102" r="324" stroke="#000" stroke-miterlimit="10" stroke-width="194"/><path d="M23415 26494c220 257 722 293 970 83 1022 1906-1636 2927-3289 1663 2399 583 961-545 2319-1746Zm1058-9111h-2c-171-13-320 146-332 323-147 2636-365 5273-653 7909-25 242 188 422 475 435h4c288 13 532-146 543-356 162-2636 254-5273 275-7909 0-209-139-390-310-403ZM9101 21204c6 11 13 21 22 30-7-10-15-20-22-30Z"/><path d="M22798 16052c-65-146-186-420-486-713-682-666-1586-736-1831-729 99-73 534-253 1280-194 616 49 937 355 1037 470-81-340-321-920-843-1248-1313-827-3130-196-3209-162 188-185 607-509 1232-681s1320-175 1572-97c-333-261-667-395-956-486-1961-616-4198 618-4538 859 240-302 751-805 1523-1183 695-340 1458-436 1831-454-370-75-980-110-1588-81-168 8-901 65-1799 373-1253 429-2804 1653-2804 1653 145-225 284-398 389-519 332-382 660-625 914-813 38-28 201-148 399-273 408-259 1004-585 1783-843-2742 181-9287 4100-6729 7331-101 1076-1829 934-872 2944-129-271 60-589 308-746 222-149 635 19 583 373-20 168-487 541-531 598-414 353 173 1462-249 2482-409 990-1237 380-1165 1037 162 1475 1475 1475 2353 1018-1133-860 502-1916 548-3530 273-1907 1742-1382 884 298 330 690 1333 2588 204 2902 652 940 2089 852 1667-607-568-1967-213-2374 551-3420 308-421-289-1381-137-1388 850-6 1709-184 2438-1108-648 130-1540 519-2220 16 1993-1264 4372-755 3873 1183-292 1134-2514 2826-2156 4878 357 2042 3920 4548 4230 7163 175-833 65-2156-729-3436-1370-2209-2894-3248-972-5057 827-778 1416-1111 2107-2269-722 2342-4651 3014 16 6418-777-560-2257-2500-535-3971 2280-2100 2797-5375 1426-7585 141 31 266 99 357 162 697 486 903 1370 924 1556 108-327 154-1593-81-2123Z"/><path d="M10740 28061c146-535 227-648 227-648s293 1428-81 2058c578-467 583-1912 583-1912s292 162 502 746c211-1053-781-1677-486-2366 438-1021 81-2156 81-2156 32 1734-1621 2901-827 4279Z"/></g></svg>
