<svg xmlns="http://www.w3.org/2000/svg" viewBox="0 0 40000 40000"><defs><filter id="a" filterUnits="userSpaceOnUse"><feOffset dx="4" dy="4"/><feGaussianBlur result="blur" stdDeviation="6"/><feFlood flood-color="#000" flood-opacity=".65"/><feComposite in2="blur" operator="in"/><feComposite in="SourceGraphic"/></filter></defs><path d="M0 0h40000v40000H0" fill="#d9e021" opacity=".5"/><g filter="url(#a)"><path d="M18406 33588c-211 0-425-6-636-17-2862-150-5581-1326-7656-3312-2069-1980-3362-4633-3642-7471-337-3407 747-6684 3052-9227 2280-2517 5516-3960 8878-3960 430 0 867 23 1298 70 1304 140 2567 490 3753 1041a360 360 0 00 408-72l3018-3018 5501 5501-3018 3018a362.1 362.1 0 00-72 408c645 1390 1013 2873 1094 4410 173 3314-993 6468-3284 8881-2294 2417-5381 3748-8692 3748Z" fill="#fff"/><path d="m26879 7850 5272 5272-2904 2904a525.7 525.7 0 00-105 591c637 1371 1000 2834 1079 4350 86 1653-165 3269-747 4802-560 1475-1398 2807-2492 3959-1096 1155-2387 2064-3835 2702-1500 661-3095 996-4741 996-208 0-419-6-627-16-2824-147-5506-1308-7553-3267-2041-1953-3317-4571-3593-7370-168-1701 24-3375 570-4973 523-1531 1344-2920 2441-4130 2250-2483 5442-3907 8758-3907 424 0 855 23 1281 69 1286 138 2532 484 3702 1027a522 522 0 00 591-105L26880 7850m0-418c-25 0-50 10-69 29l-3064 3064a202.4 202.4 0 01-226 41 12097.6 12097.6 0 00-3804-1056c-442-47-881-71-1315-71-7069 0-12804 6146-12091 13365 586 5935 5441 10615 11451 10929 216 11 431 17 644 17 6904 0 12503-5820 12138-12800-83-1590-472-3099-1109-4470-35-76-19-166 40-225l3064-3064c38-38 38-100 0-138l-5592-5592a97.8 97.8 0 00-69-29Z"/><path d="M32940 13439c-173 0-336-67-458-190l-5730-5730c-123-122-190-285-190-458s67-336 190-458 285-190 458-190 336 67 458 190l5730 5730a648.8 648.8 0 01 0 917 644.6 644.6 0 01-458 190Z" fill="#fff"/><path d="M27210 6574c130 0 252 51 344 142l5730 5730c190 190 190 498 0 688-92 92-214 142-344 142s-252-51-344-142l-5730-5730c-190-190-190-498 0-688 92-92 214-142 344-142m0-324c-207 0-415 79-573 237-316 316-316 830 0 1146l5730 5730c158 158 366 237 573 237s415-79 573-237c316-316 316-830 0-1146l-5730-5730a808.7 808.7 0 00-573-237Z"/><path d="M26366 28723c1300-1388 2167-3195 2519-5004" fill="none" stroke="#000" stroke-linecap="round" stroke-linejoin="round" stroke-width="324"/><path d="M28894 22530c-11 71-17 142-24 213-9 89 85 174 170 170 100-4 160-75 170-170 3-25 5-51 7-76 1-12 2-24 4-36 2-18 2-13-2 14 1-8 2-16 4-24 7-47 8-89-17-131-21-35-61-69-102-78-82-19-194 25-209 119Z"/><circle fill="#fff" cx="28438" cy="13896" r="648" stroke="#000" stroke-miterlimit="10" stroke-width="194"/><circle fill="#fff" cx="27287" cy="18677" r="972" stroke="#000" stroke-miterlimit="10" stroke-width="194"/><circle fill="#fff" cx="31987" cy="9180" r="324" stroke="#000" stroke-miterlimit="10" stroke-width="194"/><circle fill="#fff" cx="31468" cy="7430" r="243" stroke="#000" stroke-miterlimit="10" stroke-width="194"/><circle fill="#fff" cx="27384" cy="16003" r="486" stroke="#000" stroke-miterlimit="10" stroke-width="194"/><circle fill="#fff" cx="30464" cy="13102" r="324" stroke="#000" stroke-miterlimit="10" stroke-width="194"/><path d="M23415 26494c220 257 722 293 970 83 1022 1906-1636 2927-3289 1663 2399 583 961-545 2319-1746Zm1058-9111h-2c-171-13-320 146-332 323-147 2636-365 5273-653 7909-25 242 188 422 475 435h4c288 13 532-146 543-356 162-2636 254-5273 275-7909 0-209-139-390-310-403Zm-5338 12202c113-956-890-3120-746-4003 130-794 1232-1297 1704 87 512 1500 1330 930 1619 270 875-1995 914-4585 149-7486-1501-5692-6207-7608-9679-5593-3952 2293-5771 8257-3807 12849 1750 4094 5814 6820 9026 5983 349-91 1516-268 1734-2107Zm-7873-13860c100-774 946-1332 1743-1038s1271 1263 1171 2037-855 1229-1653 935c-797-294-1362-1159-1262-1934Zm-148 5668c-850 26-1716-451-1914-1206-198-755 346-1534 1197-1560s1717 581 1915 1336c198 755-346 1405-1197 1431Zm4754-4982c25-849 553-1742 1318-1893s1479 495 1454 1345c-25 849-666 1660-1432 1811-766 151-1365-414-1340-1263Zm2081 3517c145-798 785-1536 1687-1576 779-35 1304 712 1152 1548s-924 1444-1703 1479c-780 35-1288-614-1136-1450Zm-7466 2915c839-136 1773 307 2067 1030 294 723-164 1452-1003 1588s-1773-242-2067-965 164-1517 1002-1653Zm5477 4425c849 52 1498 782 1449 1630s-776 1495-1625 1443-1498-782-1449-1630c49-849 776-1495 1625-1443Z"/></g></svg>
