<svg xmlns="http://www.w3.org/2000/svg" viewBox="0 0 40000 40000"><defs><filter id="a" filterUnits="userSpaceOnUse"><feOffset dx="4" dy="4"/><feGaussianBlur result="blur" stdDeviation="6"/><feFlood flood-color="#000" flood-opacity=".65"/><feComposite in2="blur" operator="in"/><feComposite in="SourceGraphic"/></filter></defs><path d="M-50 0h40000v40000H-50" fill="#ed1e79" opacity=".35"/><g filter="url(#a)"><path d="M18406 33588c-211 0-425-6-636-17-2862-150-5581-1326-7656-3312-2069-1980-3362-4633-3642-7471-337-3407 747-6684 3052-9227 2280-2517 5516-3960 8878-3960 430 0 867 23 1298 70 1304 140 2567 490 3753 1041a360 360 0 00 408-72l3018-3018 5501 5501-3018 3018a362.1 362.1 0 00-72 408c645 1390 1013 2873 1094 4410 173 3314-993 6468-3284 8881-2294 2417-5381 3748-8692 3748Z" fill="#fff"/><path d="m26879 7850 5272 5272-2904 2904a525.7 525.7 0 00-105 591c637 1371 1000 2834 1079 4350 86 1653-165 3269-747 4802-560 1475-1398 2807-2492 3959-1096 1155-2387 2064-3835 2702-1500 661-3095 996-4741 996-208 0-419-6-627-16-2824-147-5506-1308-7553-3267-2041-1953-3317-4571-3593-7370-168-1701 24-3375 570-4973 523-1531 1344-2920 2441-4130 2250-2483 5442-3907 8758-3907 424 0 855 23 1281 69 1286 138 2532 484 3702 1027a522 522 0 00 591-105L26880 7850m0-418c-25 0-50 10-69 29l-3064 3064a202.4 202.4 0 01-226 41 12097.6 12097.6 0 00-3804-1056c-442-47-881-71-1315-71-7069 0-12804 6146-12091 13365 586 5935 5441 10615 11451 10929 216 11 431 17 644 17 6904 0 12503-5820 12138-12800-83-1590-472-3099-1109-4470-35-76-19-166 40-225l3064-3064c38-38 38-100 0-138l-5592-5592a97.8 97.8 0 00-69-29Z"/><path d="M32940 13439c-173 0-336-67-458-190l-5730-5730c-123-122-190-285-190-458s67-336 190-458 285-190 458-190 336 67 458 190l5730 5730a648.8 648.8 0 01 0 917 644.6 644.6 0 01-458 190Z" fill="#fff"/><path d="M27210 6574c130 0 252 51 344 142l5730 5730c190 190 190 498 0 688-92 92-214 142-344 142s-252-51-344-142l-5730-5730c-190-190-190-498 0-688 92-92 214-142 344-142m0-324c-207 0-415 79-573 237-316 316-316 830 0 1146l5730 5730c158 158 366 237 573 237s415-79 573-237c316-316 316-830 0-1146l-5730-5730a808.7 808.7 0 00-573-237Z"/><path d="M26366 28723c1300-1388 2167-3195 2519-5004" fill="none" stroke="#000" stroke-linecap="round" stroke-linejoin="round" stroke-width="324"/><path d="M28894 22530c-11 71-17 142-24 213-9 89 85 174 170 170 100-4 160-75 170-170 3-25 5-51 7-76 1-12 2-24 4-36 2-18 2-13-2 14 1-8 2-16 4-24 7-47 8-89-17-131-21-35-61-69-102-78-82-19-194 25-209 119Z"/><circle fill="#fff" cx="28438" cy="13896" r="648" stroke="#000" stroke-miterlimit="10" stroke-width="194"/><circle fill="#fff" cx="27287" cy="18677" r="972" stroke="#000" stroke-miterlimit="10" stroke-width="194"/><circle fill="#fff" cx="31987" cy="9180" r="324" stroke="#000" stroke-miterlimit="10" stroke-width="194"/><circle fill="#fff" cx="31468" cy="7430" r="243" stroke="#000" stroke-miterlimit="10" stroke-width="194"/><circle fill="#fff" cx="27384" cy="16003" r="486" stroke="#000" stroke-miterlimit="10" stroke-width="194"/><circle fill="#fff" cx="30464" cy="13102" r="324" stroke="#000" stroke-miterlimit="10" stroke-width="194"/><path d="M23415 26494c220 257 722 293 970 83 1022 1906-1636 2927-3289 1663 2399 583 961-545 2319-1746Zm1058-9111h-2c-171-13-320 146-332 323-147 2636-365 5273-653 7909-25 242 188 422 475 435h4c288 13 532-146 543-356 162-2636 254-5273 275-7909 0-209-139-390-310-403Z"/><path d="M16380 25581c-1329-2026 2204-4052 3857-6288 1222-1653 1433-3623 875-5443 1082 2596 666 4222-357 5654-762 1067-1841 2160-2690 3079-1783 1929-1783 2950 2350 5316-827-794-1975-1661-2204-2528-227-859 194-1491 1199-2561 1271-1353 5883-5089 647-11188-237-276-416-592-644-861 1068 2270 2107 5341 233 7616-1062 1289-1867 1860-2845 2893-1426 1507-2917 2885-1653 4781 986 1479 2596 2658 3647 3776 0 0-1669-1167-2318-1702-955-788-2641-1792-2658-3517s2204-3436 3148-4365c2030-1997 4068-3520 3105-6673-103 1256-1809 2447-2950 1696 887 439 1868-115 2385-863 233-328 282-699 258-1083 3-921-503-1710-876-2520-41-87-105-56-161-50-672 76-1332 209-1973 431-2445 759-4012 3018-4492 5454-382-380-704-791-898-1293 69 347 213 662 392 966-366-297-670-643-874-1072l-30 18c271 624 807 1061 1179 1619 281 442-230 895-550 1155-686 500-1496 776-2240 1171-235 118-441 363-300 629 218 513 848 838 883 1419-38 1014-1547 666-385 1871-791 177-608 482-319 1050 213 382 90 755-177 1070-430 539-394 881-86 1448 1225 2256 4816-101 6029 3080 352 958 470 2268 470 2268s1051 257 1588 324c778 97 1656 121 2269 65 891-81 1478-215 2042-357 908-227 1880-697 1880-697s-5294-3553-6758-5786Z"/></g></svg>
