<?xml version="1.0" encoding="UTF-8"?><svg id="Text_-_Fonts" xmlns="http://www.w3.org/2000/svg" viewBox="0 0 712 75"><path d="m42.8,50.15c-2.86,8.27-8.84,15.13-18.33,15.13-12.35,0-22.23-10.06-22.23-27.22S11.99,9.51,25.38,9.51c5.07,0,8.65,1.72,11.51,3.51l1.69-2.89h2.21l.26,19.97h-1.82c-3.05-11.86-7.8-18.1-13.52-18.1-7.61,0-11.38,9.83-11.38,24.73,0,16.3,4.94,24.18,12.48,24.18,6.7,0,10.79-4.37,14.24-11.86l1.75,1.09Z" style="fill:#fff; stroke:#000; stroke-linecap:round; stroke-linejoin:round;"/><path d="m80.18,45.86c0,10.84-5.53,19.42-16.38,19.42-8.78,0-15.99-7.25-15.99-19.19,0-11.15,6.3-19.03,16.25-19.03s16.12,7.88,16.12,18.8Zm-10.47-.08c0-8.19-.78-16.85-5.59-16.85-5.07,0-5.79,9.2-5.79,16.69,0,9.36,1.11,17.63,5.72,17.63s5.65-8.03,5.65-17.47Z" style="fill:#fff; stroke:#000; stroke-linecap:round; stroke-linejoin:round;"/><path d="m113.72,54.29c-2.02,6.08-6.83,11-12.68,11-10.4,0-15.28-8.42-15.28-19.34,0-9.83,5.59-18.88,15.73-18.88,7.41,0,10.92,3.9,10.92,9.13,0,3.12-1.69,5.62-5.01,5.62-3.12,0-5-2.26-5-5.54,0-1.48,1.17-3.82,1.43-4.99-.19-1.17-.71-2.26-2.27-2.26-3.12,0-5.53,4.91-5.53,16.3,0,8.89,3.12,15.13,7.67,15.13s6.76-2.42,8.58-7.25l1.43,1.09Z" style="fill:#fff; stroke:#000; stroke-linecap:round; stroke-linejoin:round;"/><path d="m150.31,45.86c0,10.84-5.53,19.42-16.38,19.42-8.78,0-15.99-7.25-15.99-19.19,0-11.15,6.31-19.03,16.25-19.03s16.12,7.88,16.12,18.8Zm-10.47-.08c0-8.19-.78-16.85-5.59-16.85-5.07,0-5.79,9.2-5.79,16.69,0,9.36,1.1,17.63,5.72,17.63s5.66-8.03,5.66-17.47Z" style="fill:#fff; stroke:#000; stroke-linecap:round; stroke-linejoin:round;"/><path d="m188.79,53.74c-.13,6.55-2.08,11.39-7.93,11.39-4.16,0-6.17-2.18-7.47-5.07h-.2c-2.15,2.73-4.23,5.23-9.29,5.23-4.42,0-7.87-3.74-7.87-8.89,0-6.63,3.12-8.66,6.37-10.06,3.9-1.72,9.17-3.51,10.79-4.99v-4.52c0-2.65,0-7.88-3.71-7.88-1.62,0-2.67.86-3.19,1.48.2,1.25,1.17,3.51,1.17,5.93,0,1.72-1.95,4.45-5.33,4.45s-4.68-2.81-4.68-5.38c0-4.84,6.96-8.35,12.54-8.35,6.96,0,12.68,1.33,12.68,11.7,0,7.1-.39,15.44-.39,18.02,0,1.25.71,3.67,2.34,3.67,1.95,0,2.47-3.2,2.54-6.71h1.62Zm-15.54-9.91c-4.49,2.11-7.35,3.82-7.35,10.38,0,4.6,1.43,6.16,3.25,6.16,2.21,0,2.86-1.17,3.83-2.96l.26-13.57Z" style="fill:#fff; stroke:#000; stroke-linecap:round; stroke-linejoin:round;"/><path d="m248.72,50.15c-2.86,8.27-8.84,15.13-18.33,15.13-12.35,0-22.23-10.06-22.23-27.22s9.75-28.55,23.14-28.55c5.07,0,8.64,1.72,11.5,3.51l1.69-2.89h2.21l.26,19.97h-1.82c-3.05-11.86-7.8-18.1-13.52-18.1-7.6,0-11.38,9.83-11.38,24.73,0,16.3,4.94,24.18,12.48,24.18,6.7,0,10.79-4.37,14.24-11.86l1.75,1.09Z" style="fill:#fff; stroke:#000; stroke-linecap:round; stroke-linejoin:round;"/><path d="m286.1,45.86c0,10.84-5.53,19.42-16.38,19.42-8.77,0-15.99-7.25-15.99-19.19,0-11.15,6.31-19.03,16.25-19.03s16.12,7.88,16.12,18.8Zm-10.46-.08c0-8.19-.78-16.85-5.59-16.85-5.07,0-5.79,9.2-5.79,16.69,0,9.36,1.11,17.63,5.72,17.63s5.66-8.03,5.66-17.47Z" style="fill:#fff; stroke:#000; stroke-linecap:round; stroke-linejoin:round;"/><path d="m309.04,64.11h-18.27v-1.64c1.04-.08,1.89-.23,2.73-.62,1.24-.55,1.69-1.72,1.69-3.43V14.43c0-2.03-.72-3.67-1.76-4.52-.78-.62-3.31-1.4-4.48-1.48v-1.56l15.15-.94.45.55v51.56c0,1.72.52,2.89,1.69,3.51.91.47,1.62.78,2.79.94v1.64Z" style="fill:#fff; stroke:#000; stroke-linecap:round; stroke-linejoin:round;"/><path d="m345.96,45.86c0,10.84-5.53,19.42-16.38,19.42-8.78,0-15.99-7.25-15.99-19.19,0-11.15,6.31-19.03,16.25-19.03s16.12,7.88,16.12,18.8Zm-10.46-.08c0-8.19-.78-16.85-5.59-16.85-5.07,0-5.79,9.2-5.79,16.69,0,9.36,1.11,17.63,5.72,17.63s5.66-8.03,5.66-17.47Z" style="fill:#fff; stroke:#000; stroke-linecap:round; stroke-linejoin:round;"/><path d="m379.24,34.32c0,3.67-2.02,6.71-5.01,6.71-2.79,0-4.81-1.87-4.81-5.07,0-1.4.58-2.81.78-3.74-2.8.08-4.62,2.65-5.14,3.74v22.15c0,1.72.65,2.89,1.75,3.43,1.04.55,3.32.86,4.29.94v1.64h-19.83v-1.64c1.04-.08,1.88-.23,2.73-.62,1.23-.55,1.62-1.72,1.62-3.43v-23.09c0-1.48-.72-3.28-1.69-4.13-.71-.62-2.15-1.09-3.25-1.17v-1.56l13.91-.94.46.55v5.23h.13c2.6-4.06,5.27-6.08,8.39-6.08s5.66,2.81,5.66,7.1Z" style="fill:#fff; stroke:#000; stroke-linecap:round; stroke-linejoin:round;"/><path d="m439.3,47.27l-.85,16.85h-39.59v-1.79c1.1-.16,4.16-.62,4.94-1.01,1.56-.78,1.95-2.18,1.95-3.9V17.86c0-1.72-.32-3.04-1.95-3.82-1.24-.62-3.84-1.25-4.94-1.4v-1.79h24.38v1.79c-1.17.16-3.45.55-4.62,1.01-1.56.62-2.02,2.11-2.02,3.82v37.52c0,6.08,1.11,6.71,6.89,6.71,3.25,0,6.63-.16,8.12-1.95,2.21-2.65,4.81-8.66,6.11-12.48h1.56Z" style="fill:#fff; stroke:#000; stroke-linecap:round; stroke-linejoin:round;"/><path d="m476.41,53.74c-.13,6.55-2.08,11.39-7.93,11.39-4.16,0-6.17-2.18-7.48-5.07h-.19c-2.15,2.73-4.23,5.23-9.3,5.23-4.42,0-7.87-3.74-7.87-8.89,0-6.63,3.12-8.66,6.37-10.06,3.9-1.72,9.17-3.51,10.79-4.99v-4.52c0-2.65,0-7.88-3.71-7.88-1.62,0-2.67.86-3.19,1.48.2,1.25,1.17,3.51,1.17,5.93,0,1.72-1.95,4.45-5.33,4.45s-4.68-2.81-4.68-5.38c0-4.84,6.96-8.35,12.54-8.35,6.96,0,12.68,1.33,12.68,11.7,0,7.1-.39,15.44-.39,18.02,0,1.25.72,3.67,2.34,3.67,1.95,0,2.47-3.2,2.54-6.71h1.62Zm-15.54-9.91c-4.48,2.11-7.34,3.82-7.34,10.38,0,4.6,1.43,6.16,3.25,6.16,2.21,0,2.86-1.17,3.83-2.96l.26-13.57Z" style="fill:#fff; stroke:#000; stroke-linecap:round; stroke-linejoin:round;"/><path d="m512.88,46.25c0,11-6.37,19.03-14.89,19.03-6.63,0-9.36-3.04-11.05-4.68l-4.03,5.07-1.17-.62c.2-3.12.39-8.5.39-14.12V14.19c0-1.72-.72-3.59-1.76-4.45-.78-.62-3.05-1.25-4.16-1.33v-1.56l14.89-.94.46.55v25.51l.26.08c1.43-1.95,4.29-4.99,8.26-4.99,7.48,0,12.81,7.33,12.81,19.19Zm-10.4.55c0-7.64-1.24-15.13-6.18-15.13-2.41,0-3.38,1.09-4.75,3.04v22.78c.58,2.42,1.88,5.77,5.01,5.77,3.71,0,5.92-6.47,5.92-16.46Z" style="fill:#fff; stroke:#000; stroke-linecap:round; stroke-linejoin:round;"/><path d="m569.04,48.59c0,9.52-6.57,16.69-16.71,16.69-6.83,0-10.53-2.5-12.87-4.06l-1.95,3.51h-2.21l-.39-19.66h1.69c2.34,7.57,7.74,17.55,14.62,17.55,4.94,0,8.12-4.21,8.12-9.44,0-4.6-2.27-7.41-7.08-9.44-2.86-1.17-6.3-2.42-8.32-3.43-5.53-2.81-8-8.5-8-15.05,0-8.42,5.53-15.76,15.28-15.76,4.81,0,9.1,1.87,11.31,3.51l1.69-2.89h2.27l.26,18.49h-1.69c-2.41-8.11-5.98-16.46-12.94-16.46-3.9,0-6.83,3.9-6.83,8.66s2.14,7.33,7.02,9.44c2.6,1.17,6.3,2.34,8.38,3.43,5.07,2.57,8.32,6.63,8.32,14.9Z" style="fill:#fff; stroke:#000; stroke-linecap:round; stroke-linejoin:round;"/><path d="m607.91,53.74c-.13,6.55-2.08,11.39-7.93,11.39-4.16,0-6.17-2.18-7.48-5.07h-.19c-2.15,2.73-4.23,5.23-9.3,5.23-4.42,0-7.87-3.74-7.87-8.89,0-6.63,3.12-8.66,6.37-10.06,3.9-1.72,9.17-3.51,10.79-4.99v-4.52c0-2.65,0-7.88-3.71-7.88-1.62,0-2.67.86-3.19,1.48.2,1.25,1.17,3.51,1.17,5.93,0,1.72-1.95,4.45-5.33,4.45s-4.68-2.81-4.68-5.38c0-4.84,6.96-8.35,12.54-8.35,6.96,0,12.68,1.33,12.68,11.7,0,7.1-.39,15.44-.39,18.02,0,1.25.71,3.67,2.34,3.67,1.95,0,2.47-3.2,2.54-6.71h1.62Zm-15.54-9.91c-4.49,2.11-7.34,3.82-7.34,10.38,0,4.6,1.43,6.16,3.25,6.16,2.21,0,2.86-1.17,3.83-2.96l.26-13.57Z" style="fill:#fff; stroke:#000; stroke-linecap:round; stroke-linejoin:round;"/><path d="m628.38,64.11h-18.27v-1.64c1.04-.08,1.89-.23,2.73-.62,1.24-.55,1.69-1.72,1.69-3.43V14.43c0-2.03-.72-3.67-1.76-4.52-.78-.62-3.31-1.4-4.48-1.48v-1.56l15.15-.94.45.55v51.56c0,1.72.52,2.89,1.69,3.51.91.47,1.62.78,2.79.94v1.64Z" style="fill:#fff; stroke:#000; stroke-linecap:round; stroke-linejoin:round;"/><path d="m665.3,45.86c0,10.84-5.53,19.42-16.38,19.42-8.78,0-15.99-7.25-15.99-19.19,0-11.15,6.31-19.03,16.25-19.03s16.12,7.88,16.12,18.8Zm-10.46-.08c0-8.19-.78-16.85-5.59-16.85-5.07,0-5.79,9.2-5.79,16.69,0,9.36,1.11,17.63,5.72,17.63s5.66-8.03,5.66-17.47Z" style="fill:#fff; stroke:#000; stroke-linecap:round; stroke-linejoin:round;"/><path d="m707.74,64.11h-17.23v-1.64c.84-.08,1.75-.23,2.41-.62.84-.55.97-1.72.97-3.43v-18.8c0-5.38-1.5-7.57-3.77-7.57-3.32,0-5.01,2.96-5.72,4.68v21.29c0,1.72.26,2.89,1.11,3.51.84.62,1.62.78,2.47.94v1.64h-17.36v-1.64c1.04-.08,1.88-.23,2.73-.62,1.17-.55,1.63-1.72,1.63-3.43v-23.09c0-1.64-.72-3.35-1.69-4.13-.78-.62-2.08-1.09-3.12-1.17v-1.56l13.78-.94.46.55v5.38h.13c2.34-2.96,4.55-6.4,10.01-6.4,5.92,0,8.91,4.84,8.91,12.25v18.8c0,1.72.33,2.81,1.5,3.43.91.47,1.62.78,2.79.94v1.64Z" style="fill:#fff; stroke:#000; stroke-linecap:round; stroke-linejoin:round;"/></svg>