<svg xmlns="http://www.w3.org/2000/svg" viewBox="0 0 40000 40000"><defs><filter id="a" filterUnits="userSpaceOnUse"><feOffset dx="4" dy="4"/><feGaussianBlur result="blur" stdDeviation="6"/><feFlood flood-color="#000" flood-opacity=".65"/><feComposite in2="blur" operator="in"/><feComposite in="SourceGraphic"/></filter></defs><path d="M0 0h40000v40000H0" fill="#4d4d4d" opacity=".5"/><g filter="url(#a)"><path d="M18406 33588c-211 0-425-6-636-17-2862-150-5581-1326-7656-3312-2069-1980-3362-4633-3642-7471-337-3407 747-6684 3052-9227 2280-2517 5516-3960 8878-3960 430 0 867 23 1298 70 1304 140 2567 490 3753 1041a360 360 0 00 408-72l3018-3018 5501 5501-3018 3018a362.1 362.1 0 00-72 408c645 1390 1013 2873 1094 4410 173 3314-993 6468-3284 8881-2294 2417-5381 3748-8692 3748Z" fill="#fff"/><path d="m26879 7850 5272 5272-2904 2904a525.7 525.7 0 00-105 591c637 1371 1000 2834 1079 4350 86 1653-165 3269-747 4802-560 1475-1398 2807-2492 3959-1096 1155-2387 2064-3835 2702-1500 661-3095 996-4741 996-208 0-419-6-627-16-2824-147-5506-1308-7553-3267-2041-1953-3317-4571-3593-7370-168-1701 24-3375 570-4973 523-1531 1344-2920 2441-4130 2250-2483 5442-3907 8758-3907 424 0 855 23 1281 69 1286 138 2532 484 3702 1027a522 522 0 00 591-105L26880 7850m0-418c-25 0-50 10-69 29l-3064 3064a202.4 202.4 0 01-226 41 12097.6 12097.6 0 00-3804-1056c-442-47-881-71-1315-71-7069 0-12804 6146-12091 13365 586 5935 5441 10615 11451 10929 216 11 431 17 644 17 6904 0 12503-5820 12138-12800-83-1590-472-3099-1109-4470-35-76-19-166 40-225l3064-3064c38-38 38-100 0-138l-5592-5592a97.8 97.8 0 00-69-29Z"/><path d="M32940 13439c-173 0-336-67-458-190l-5730-5730c-123-122-190-285-190-458s67-336 190-458 285-190 458-190 336 67 458 190l5730 5730a648.8 648.8 0 01 0 917 644.6 644.6 0 01-458 190Z" fill="#fff"/><path d="M27210 6574c130 0 252 51 344 142l5730 5730c190 190 190 498 0 688-92 92-214 142-344 142s-252-51-344-142l-5730-5730c-190-190-190-498 0-688 92-92 214-142 344-142m0-324c-207 0-415 79-573 237-316 316-316 830 0 1146l5730 5730c158 158 366 237 573 237s415-79 573-237c316-316 316-830 0-1146l-5730-5730a808.7 808.7 0 00-573-237Z"/><path d="M26366 28723c1300-1388 2167-3195 2519-5004" fill="none" stroke="#000" stroke-linecap="round" stroke-linejoin="round" stroke-width="324"/><path d="M28894 22530c-11 71-17 142-24 213-9 89 85 174 170 170 100-4 160-75 170-170 3-25 5-51 7-76 1-12 2-24 4-36 2-18 2-13-2 14 1-8 2-16 4-24 7-47 8-89-17-131-21-35-61-69-102-78-82-19-194 25-209 119Z"/><circle fill="#fff" cx="28438" cy="13896" r="648" stroke="#000" stroke-miterlimit="10" stroke-width="194"/><circle fill="#fff" cx="27287" cy="18677" r="972" stroke="#000" stroke-miterlimit="10" stroke-width="194"/><circle fill="#fff" cx="31987" cy="9180" r="324" stroke="#000" stroke-miterlimit="10" stroke-width="194"/><circle fill="#fff" cx="31468" cy="7430" r="243" stroke="#000" stroke-miterlimit="10" stroke-width="194"/><circle fill="#fff" cx="27384" cy="16003" r="486" stroke="#000" stroke-miterlimit="10" stroke-width="194"/><circle fill="#fff" cx="30464" cy="13102" r="324" stroke="#000" stroke-miterlimit="10" stroke-width="194"/><path d="M8737 19445c-471-435-755-1061-472-1757 368-906 1339-1357 2493-890 1139 461 1630 1493 1232 2476-151 372-373 588-579 749l144 203-66 162-1351-525 54-134c889 99 1450-79 1620-499 226-558-323-1103-1325-1508-1097-444-1774-296-1998 257-199 491-27 911 374 1368l-126 99Zm195 3356c-787-6-1403-448-1389-1308 11-695 547-1262 1414-1255 810 6 1373 510 1361 1297-13 803-593 1272-1385 1266Zm19-829c595 5 1224-52 1230-433 7-401-661-463-1204-468-679-5-1281 78-1287 443-6 350 576 452 1261 458Zm-807 3007-358-1401 115-29c26 78 53 140 97 198 63 85 154 99 274 68l3093-793c143-37 244-121 284-216 29-71 34-280 16-371l110-28 363 1145-29 45-3625 930c-121 31-193 92-214 193-15 78-23 139-11 231l-115 30Zm2649 2364c-686 386-1444 309-1866-439-341-605-163-1361 593-1786 706-397 1450-242 1836 444 394 700 128 1392-563 1781Zm-402-725c518-291 1036-653 849-985-197-350-807-72-1281 195-592 333-1073 703-893 1022 172 305 728 104 1326-231Zm2981 2064c-182 194-449 247-622 85-162-151-185-359-27-529 70-75 173-117 231-156-166-147-398-109-483-79l-1098 1175c-85 91-105 188-69 277 33 85 149 225 202 282l-81 87-1147-1072 81-87c64 52 121 90 189 115 98 38 179-3 264-94l1144-1225c73-79 121-212 107-311-10-72-70-174-130-238l77-83 851 703v54l-260 277 8 7c351-75 606-38 786 131s188 455-25 682Zm3912 2548-412 1153-3006-890 37-125c87 14 329 50 396 41 135-19 193-108 229-227l817-2752c35-119 38-219-69-310-81-71-266-173-346-209l37-125 1851 548-37 125c-92-15-273-39-371-33-131 8-197 101-232 221l-775 2611c-126 423-55 492 385 622 247 73 507 138 657 47 223-135 544-494 722-731l118 35Zm3249 263c24 475-104 836-566 869-329 24-499-123-617-325h-15c-155 211-306 403-707 432-349 25-641-227-668-599-35-480 201-645 450-765 299-146 705-306 826-422l-24-328c-14-192-42-570-334-549-128 9-206 77-244 125 22 89 111 247 124 423 9 124-130 333-398 352-267 19-384-177-398-363-26-350 505-644 947-675 549-39 1008 24 1063 775 37 514 51 1120 64 1307 7 90 76 261 204 252 154-11 178-246 165-500l128-9Zm-1280-629c-343 178-560 318-525 793 24 333 146 438 289 428 175-12 220-101 287-236l-51-984Zm4110-1079c315 733 83 1469-537 1736-482 208-768 91-938 34l-148 464-103-5c-75-214-215-579-377-954l-1054-2450c-49-114-155-217-255-242-75-17-258 12-341 42l-45-104 1056-529 49 22 731 1701 21-3c48-175 169-467 457-592 544-234 1142 88 1482 878Zm-741 362c-219-510-524-970-883-816-175 75-214 179-258 352l653 1519c112 143 303 326 530 228 269-116 245-617-42-1283Zm-9288-7936c-388-191-692-541-644-1045 62-656 602-1133 1437-1052 823 80 1340 652 1272 1363-26 269-127 451-229 594l132 103-11 117-973-80 9-97c592-106 920-329 949-633 38-404-421-650-1146-721-793-77-1201 148-1239 549-34 355 158 594 505 812l-62 88Zm1076 2145c-483 219-987 124-1227-403-194-426-30-923 501-1164 497-225 987-79 1206 404 224 492 5 942-481 1162Zm-228-510c365-166 733-378 627-612-112-246-538-95-871 56-417 189-760 410-659 634 98 215 483 112 903-79Zm1421 2189c-276 155-627 169-863-35-419-363-347-845 2-1248 314-364 829-503 1238-150 299 258 316 525 149 719-100 115-248 149-381 33-126-109-129-258-25-379 47-55 169-101 217-135 30-50 44-109-19-163-126-109-380-11-744 410-284 329-358 669-174 827 178 154 350 146 578 31l23 90Zm2308 392c-147 509-546 831-1102 671-450-129-721-576-560-1137 151-524 581-801 1090-655 520 149 719 607 572 1120Zm-535-158c111-385 188-803-58-874-260-75-421 347-522 699-127 440-182 844 54 912 227 65 399-294 526-737Zm2867 247c49 317-11 567-319 622-218 39-343-48-436-175l-10 2c-89 151-177 291-443 338-232 41-445-107-489-355-57-319 89-446 248-543 190-119 451-254 524-341l-39-218c-23-128-68-379-262-345-85 15-133 66-155 101 21 58 92 158 112 274 15 83-64 232-242 264-178 31-270-92-292-216-42-233 294-466 587-518 365-65 677-54 766 445 61 342 112 747 134 871 11 60 69 170 154 155 102-18 102-177 76-346l85-15Zm-901-332c-217 143-353 252-297 567 40 221 128 283 224 266 116-21 140-83 176-178l-103-656Z"/></g></svg>
